<?xml version="1.0" standalone="no"?>
<!DOCTYPE svg PUBLIC "-//W3C//DTD SVG 20010904//EN"
 "http://www.w3.org/TR/2001/REC-SVG-20010904/DTD/svg10.dtd">
<svg version="1.0" xmlns="http://www.w3.org/2000/svg"
 width="512.000000pt" height="512.000000pt" viewBox="0 0 512.000000 512.000000"
 preserveAspectRatio="xMidYMid meet">
<metadata>
Created by potrace 1.14, written by Peter Selinger 2001-2017
</metadata>
<g transform="translate(0.000000,512.000000) scale(0.100000,-0.100000)"
fill="#000000" stroke="none">
<path d="M1953 5076 c0 -8 8 -13 19 -11 10 2 16 0 13 -6 -9 -14 -73 -11 -78 4
-3 6 -4 2 -4 -10 1 -12 6 -19 12 -16 5 4 2 -3 -8 -14 -10 -11 -17 -27 -15 -34
2 -8 -3 -13 -11 -11 -8 2 -11 -3 -8 -10 2 -7 -2 -19 -9 -26 -9 -8 -14 -9 -14
-2 0 13 -42 9 -52 -5 -4 -6 -8 -2 -8 8 0 19 -25 23 -36 5 -5 -7 -3 -8 7 -3 12
7 12 6 1 -7 -8 -10 -21 -14 -35 -11 -21 5 -21 5 -4 -9 18 -13 17 -15 -4 -33
-12 -11 -19 -15 -16 -9 7 12 -21 29 -31 19 -3 -3 0 -5 7 -5 7 0 9 -5 6 -11 -4
-6 -14 -8 -22 -4 -12 4 -13 2 -5 -8 8 -10 6 -13 -9 -14 -11 -1 -17 2 -14 8 4
5 -5 4 -19 -3 -14 -6 -26 -16 -26 -21 0 -5 8 -3 18 4 15 12 16 12 5 -2 -8 -9
-26 -15 -50 -13 -36 1 -53 -9 -53 -31 0 -5 5 -3 11 5 9 13 10 13 6 0 -2 -8
-12 -14 -21 -14 -13 2 -14 -1 -5 -13 7 -8 8 -13 3 -12 -18 4 -43 -13 -38 -26
6 -15 -29 -38 -42 -27 -5 4 -2 -2 6 -12 14 -18 13 -19 -2 -13 -12 4 -18 1 -18
-9 0 -9 -5 -12 -12 -8 -8 5 -9 2 -5 -9 4 -10 1 -17 -6 -17 -8 0 -6 -4 3 -10
12 -8 12 -10 1 -10 -9 0 -11 -7 -8 -21 5 -17 3 -18 -11 -7 -13 11 -15 11 -10
-2 3 -9 0 -24 -8 -34 -7 -11 -11 -22 -9 -27 3 -4 -7 -17 -21 -28 -15 -12 -24
-27 -21 -35 3 -7 -3 -23 -13 -34 -10 -11 -16 -23 -13 -26 4 -3 1 -6 -6 -6 -7
0 -9 -5 -6 -11 4 -6 -2 -20 -13 -32 -25 -27 -28 -37 -10 -48 10 -7 8 -9 -6 -9
-14 0 -16 -3 -8 -13 9 -10 6 -18 -10 -32 -21 -18 -21 -19 -3 -25 17 -6 17 -7
-4 -13 -15 -4 -20 -10 -15 -18 10 -17 12 -59 2 -53 -4 3 -8 0 -8 -5 0 -6 6
-11 13 -11 9 0 9 -2 -1 -8 -8 -5 -10 -16 -6 -27 6 -14 4 -16 -6 -10 -9 5 -11
4 -6 -4 5 -8 12 -9 20 -2 8 7 12 5 12 -8 0 -11 -6 -17 -13 -14 -8 3 -13 -2
-13 -13 0 -16 -2 -17 -10 -4 -8 12 -10 10 -10 -8 0 -13 -4 -20 -10 -17 -5 3
-10 -1 -10 -9 0 -9 -5 -16 -12 -16 -6 0 -8 -3 -4 -7 3 -4 -4 -13 -16 -19 l-23
-13 25 -10 c19 -7 20 -10 7 -10 -10 -1 -16 -5 -12 -10 3 -6 -4 -15 -15 -21
-11 -6 -20 -16 -19 -23 0 -9 2 -9 6 1 7 18 19 14 19 -7 0 -11 -3 -18 -6 -16
-3 2 -12 -5 -19 -17 -7 -11 -8 -17 -3 -14 6 3 13 -1 16 -10 9 -23 7 -31 -4
-14 -8 13 -11 13 -22 1 -8 -9 -9 -11 -1 -7 15 8 7 -42 -10 -63 -9 -12 -9 -13
1 -7 6 4 12 4 13 -1 0 -4 2 -18 3 -31 2 -15 -2 -21 -10 -18 -14 6 -12 -21 6
-53 8 -16 8 -21 -2 -21 -9 0 -9 -3 2 -11 12 -8 10 -10 -10 -5 -23 5 -23 4 -7
-8 11 -9 14 -15 6 -18 -6 -2 -12 -26 -13 -53 -1 -28 -5 -56 -9 -62 -5 -7 -4
-13 1 -13 5 0 9 -7 9 -15 0 -18 -13 -20 -20 -2 -4 9 -6 9 -6 -1 -1 -7 6 -15
14 -18 10 -4 13 -13 10 -24 -3 -10 0 -22 6 -26 7 -4 9 -3 5 4 -3 6 -2 13 3 16
18 11 5 -24 -15 -40 -14 -12 -15 -14 -3 -11 14 5 15 0 9 -30 -5 -19 -15 -42
-24 -52 -14 -15 -14 -18 -1 -18 8 0 11 5 8 10 -3 6 -1 7 5 4 9 -6 9 -15 3 -46
-1 -2 -8 2 -16 9 -13 11 -14 10 -9 -4 4 -9 1 -16 -6 -16 -9 0 -9 -4 1 -17 12
-15 12 -16 -6 -9 -16 6 -18 5 -7 -5 16 -17 16 -42 0 -33 -7 4 -5 -2 5 -13 14
-16 15 -23 6 -29 -8 -5 -10 -3 -4 7 5 8 4 11 0 6 -5 -4 -9 -18 -10 -32 0 -18
3 -24 14 -20 11 4 12 3 1 -10 -7 -8 -16 -12 -21 -9 -5 3 -9 0 -9 -6 0 -7 7
-10 15 -7 8 4 17 1 21 -6 4 -7 4 -9 -1 -5 -12 11 -34 -35 -23 -49 6 -7 4 -14
-3 -19 -8 -5 -9 -3 -4 6 6 9 4 11 -4 5 -9 -5 -10 -10 -2 -18 7 -7 7 -16 0 -30
-9 -15 -8 -18 3 -11 8 5 7 -1 -5 -19 -16 -25 -16 -26 0 -20 16 6 16 5 5 -10
-8 -9 -11 -21 -7 -27 3 -5 -2 -10 -11 -10 -10 0 -14 -3 -11 -7 4 -3 -1 -12
-11 -20 -9 -8 -12 -12 -6 -9 7 3 14 -1 18 -9 3 -8 0 -14 -6 -12 -7 1 -13 -8
-14 -20 -1 -13 2 -23 5 -23 4 0 7 -9 7 -20 0 -11 -4 -20 -9 -20 -5 0 -5 -6 2
-13 8 -10 7 -17 -1 -25 -9 -9 -9 -12 1 -12 7 0 9 -5 6 -10 -4 -6 -11 -8 -16
-5 -5 3 -6 -2 -2 -11 4 -11 3 -15 -5 -10 -6 3 -3 -8 6 -26 19 -38 24 -90 8
-82 -6 3 -3 -1 7 -9 16 -13 16 -15 2 -21 -11 -4 -14 -2 -9 6 4 6 3 8 -4 4 -6
-3 -9 -18 -6 -32 3 -14 1 -23 -4 -20 -11 6 -9 -25 2 -43 5 -8 3 -17 -5 -23
-11 -7 -11 -11 -2 -14 10 -4 10 -8 0 -19 -7 -7 -15 -11 -19 -9 -4 2 -10 -1
-14 -7 -4 -8 -3 -9 4 -5 7 4 12 2 12 -3 0 -6 -4 -11 -10 -11 -5 0 -10 -5 -10
-11 0 -5 5 -7 10 -4 6 3 10 2 10 -4 0 -5 -6 -11 -12 -14 -10 -3 -8 -9 4 -24
10 -11 18 -35 18 -54 0 -37 68 -219 82 -219 5 0 6 -4 3 -10 -3 -5 0 -11 7 -11
45 -5 74 -3 80 6 5 6 8 2 8 -7 0 -14 8 -18 33 -18 48 0 73 -33 82 -109 3 -31
27 -81 38 -81 6 0 8 -3 4 -6 -8 -8 16 -65 39 -92 9 -11 23 -34 30 -51 11 -27
10 -32 -13 -55 -22 -22 -25 -32 -19 -65 6 -41 51 -128 62 -123 4 2 11 -2 15
-10 8 -11 10 -11 18 1 7 11 9 11 14 0 5 -12 7 -12 15 0 6 8 22 15 35 17 20 2
25 -1 20 -14 -3 -10 -2 -13 4 -6 4 5 21 10 36 10 22 -1 35 -11 56 -41 16 -22
33 -39 40 -38 15 4 14 -14 -1 -20 -10 -4 -10 -6 0 -6 6 -1 12 -7 12 -15 0 -8
4 -16 8 -18 7 -3 136 -225 138 -238 2 -16 40 -90 46 -90 5 0 8 -5 8 -12 0 -7
18 -38 40 -69 22 -32 40 -60 40 -64 0 -4 11 -18 24 -30 14 -13 22 -25 19 -28
-6 -6 36 -70 49 -75 4 -2 8 -10 8 -17 0 -8 8 -16 18 -19 10 -3 25 -19 35 -35
22 -38 179 -201 194 -201 6 0 31 -16 55 -36 23 -20 98 -63 164 -96 l122 -59
119 -1 c140 -1 258 12 294 32 31 17 132 88 169 118 14 11 63 51 108 89 97 79
151 130 207 197 22 26 53 62 68 79 16 18 45 59 64 92 20 33 43 68 51 78 8 9
12 20 9 24 -4 3 5 16 18 29 14 13 25 28 25 34 0 5 3 10 8 10 4 0 21 23 37 51
17 28 35 56 40 63 6 6 11 18 13 26 2 8 7 17 10 20 12 9 31 73 25 83 -4 6 -1 7
7 2 10 -6 12 -4 7 8 -3 10 -3 17 2 17 5 0 12 15 16 33 4 17 9 37 11 42 2 6 19
54 38 108 19 54 34 99 34 100 0 1 3 19 7 39 4 20 8 55 9 77 3 52 9 58 35 32
12 -12 35 -23 51 -24 41 -5 48 -15 17 -22 -18 -5 -33 -21 -47 -49 -34 -72 -13
-135 55 -165 63 -28 77 -25 117 21 21 23 38 48 38 55 0 7 4 13 9 13 5 0 12 14
16 30 4 17 10 30 15 30 7 0 18 24 26 64 2 10 13 38 23 62 11 23 17 45 13 48
-3 3 0 6 7 6 7 0 11 6 8 13 -3 6 -8 21 -12 32 l-8 20 16 -20 c16 -20 16 -20
10 3 -3 13 -1 22 6 22 8 0 9 5 2 19 -6 10 -8 21 -4 24 3 4 0 13 -7 22 -7 8 -9
15 -6 15 4 0 2 8 -3 18 -6 11 -6 24 1 36 7 12 7 17 0 12 -5 -3 -13 1 -16 10
-4 10 -2 13 7 8 8 -5 8 -2 -2 9 -7 9 -18 14 -24 10 -6 -3 -7 -1 -3 5 5 9 13 9
29 0 20 -10 21 -10 9 5 -8 9 -11 21 -7 27 3 5 2 10 -3 10 -5 0 -9 7 -9 15 0 8
4 12 8 9 4 -2 7 5 6 16 -1 11 -4 20 -8 20 -9 0 -6 20 4 38 5 7 3 12 -3 12 -6
0 -8 5 -3 13 10 17 10 41 -2 49 -5 4 -3 14 6 25 19 22 19 41 -1 54 -12 8 -11
9 6 4 13 -3 26 1 34 10 8 10 9 15 1 15 -6 0 -11 -5 -11 -11 0 -5 -5 -7 -11 -3
-8 5 -8 9 1 14 8 5 9 13 4 21 -6 11 -5 12 7 2 12 -10 14 -8 14 11 -1 12 -5 29
-10 37 -8 12 -6 12 8 1 20 -17 37 -8 37 19 0 11 4 17 10 14 7 -4 7 2 0 19 -7
20 -6 24 5 19 18 -6 19 8 3 26 -11 11 -9 11 12 1 l25 -13 -20 23 c-11 13 -15
20 -8 17 7 -5 9 0 5 15 -3 13 -1 19 6 15 6 -5 9 2 7 18 -1 14 2 25 6 25 5 0 9
4 9 10 0 5 -8 7 -17 4 -15 -5 -15 -4 -3 4 10 8 18 8 27 0 19 -16 16 -2 -4 18
-17 17 -17 17 3 12 19 -5 20 -1 18 38 -1 27 3 48 12 55 17 14 19 33 2 23 -9
-5 -9 -2 1 9 7 9 10 17 5 17 -5 0 -2 5 6 10 10 6 11 10 3 10 -7 0 -13 5 -13
11 0 5 4 8 8 5 5 -3 9 1 9 9 0 14 -11 19 -30 16 -5 -1 -5 8 -2 20 4 13 3 19
-2 16 -5 -3 -9 4 -8 16 3 28 -5 48 -15 42 -4 -3 -10 2 -14 10 -3 10 1 15 12
16 10 0 12 3 5 6 -7 2 -13 13 -13 23 0 10 -5 22 -11 26 -8 4 -7 9 2 15 11 7
10 9 -4 9 -12 0 -16 5 -11 13 6 10 4 10 -7 0 -18 -18 -34 -16 -19 2 11 14 7
19 -12 16 -4 0 -5 5 -2 13 3 7 -2 18 -10 25 -15 13 -12 63 4 69 5 2 4 12 -2
22 -10 15 -15 17 -27 7 -12 -10 -13 -9 -6 3 6 8 10 29 10 45 0 17 5 36 9 44 6
9 5 12 -2 7 -6 -3 -13 -2 -17 4 -4 6 -10 8 -14 5 -5 -2 -6 7 -3 20 3 17 -4 36
-21 58 -17 23 -21 34 -12 34 8 0 12 -4 10 -8 -3 -3 3 -13 13 -20 15 -13 16
-12 3 4 -7 9 -10 17 -5 17 5 0 0 7 -10 15 -14 11 -16 15 -5 15 8 0 10 3 4 8
-12 8 -13 22 -2 39 6 9 3 11 -9 6 -13 -5 -16 -3 -11 10 3 9 3 16 -1 16 -29 -5
-41 26 -17 43 6 4 2 8 -8 8 -10 0 -15 5 -12 10 3 6 2 10 -2 10 -5 0 -9 9 -10
20 -1 12 3 18 8 14 6 -3 5 3 -2 14 -7 12 -18 18 -24 14 -5 -3 -4 2 4 11 12 15
12 17 -2 11 -12 -4 -14 -1 -10 17 5 16 3 20 -6 14 -10 -6 -11 -3 -1 15 8 15 8
20 1 16 -6 -4 -11 -2 -11 4 0 6 -3 9 -7 7 -5 -3 -9 22 -10 54 -1 58 3 67 23
52 5 -5 1 -1 -8 9 -10 9 -18 23 -18 32 0 9 -7 16 -15 16 -18 0 -20 16 -4 26 8
4 7 9 -2 15 -9 5 -10 9 -3 9 7 0 15 7 18 16 5 14 4 15 -8 5 -11 -9 -16 -9 -22
0 -4 7 -3 9 3 6 6 -4 15 5 22 20 10 22 10 24 -1 15 -11 -9 -14 -5 -13 18 0 16
3 32 6 35 10 9 -3 55 -13 49 -6 -4 -5 3 1 14 8 15 8 23 -1 28 -7 4 -8 3 -4 -4
5 -8 2 -10 -9 -6 -12 5 -13 9 -4 20 8 10 8 14 0 14 -6 0 -11 5 -11 11 0 5 4 7
10 4 6 -3 7 1 4 10 -4 10 -14 15 -25 12 -15 -4 -16 -2 -6 13 6 10 16 16 22 14
5 -3 -3 5 -19 17 -58 45 -78 69 -73 83 4 10 0 14 -14 11 -13 -3 -19 0 -16 8 4
14 -5 26 -58 80 -22 22 -39 44 -37 50 2 6 -4 4 -13 -3 -13 -11 -14 -10 -9 5 5
12 4 16 -3 12 -13 -8 -36 17 -25 28 4 5 -2 5 -13 1 -11 -4 -16 -4 -13 0 4 3 0
13 -8 22 -13 12 -13 16 -2 23 10 7 10 10 -1 21 -12 11 -13 10 -6 -2 5 -8 4
-12 0 -7 -5 4 -10 18 -12 30 -2 17 -1 19 7 7 6 -9 10 -10 10 -3 0 6 -5 15 -10
18 -6 4 -8 10 -5 15 8 13 -6 40 -22 40 -8 0 -11 5 -8 10 3 6 -1 10 -10 10 -21
0 -30 27 -15 45 11 13 10 15 -6 12 -11 -1 -25 -6 -31 -10 -8 -5 -13 -3 -13 5
0 9 -3 9 -10 -2 -8 -13 -10 -12 -10 3 0 9 5 17 12 17 6 0 8 3 5 6 -4 4 -14 1
-24 -7 -11 -9 -14 -10 -9 -1 4 7 2 12 -4 12 -6 0 -8 5 -5 10 4 6 1 9 -7 8 -7
-2 -12 3 -10 10 1 8 -2 11 -8 7 -5 -3 -13 1 -16 10 -5 12 -9 13 -20 4 -12 -9
-13 -9 -9 4 4 8 1 18 -6 23 -8 4 -10 3 -5 -4 4 -7 2 -12 -3 -12 -6 0 -11 6
-11 13 0 8 -4 7 -10 -3 -9 -13 -14 -8 -12 11 1 4 -8 4 -20 1 -14 -3 -26 1 -34
13 -9 12 -14 14 -14 6 0 -8 -6 -11 -16 -7 -8 3 -12 2 -9 -4 3 -6 1 -10 -4 -10
-6 0 -11 5 -11 12 0 6 -7 3 -15 -8 -13 -16 -14 -17 -9 -1 7 18 -15 21 -27 3
-10 -13 -31 3 -22 17 3 7 -3 3 -15 -7 -14 -12 -22 -14 -22 -7 0 7 -4 9 -10 6
-5 -3 -10 -1 -10 6 0 7 -8 6 -25 -5 -30 -20 -32 -20 -38 2 -4 15 -5 15 -6 -2
-1 -14 -7 -17 -30 -14 -17 2 -28 1 -25 -3 8 -13 -46 -3 -59 11 -10 11 -9 12 3
5 9 -6 7 -2 -4 8 -12 11 -22 14 -24 8 -2 -7 -8 -7 -17 2 -38 33 -46 37 -70 33
-27 -5 -34 8 -9 18 10 4 13 2 8 -6 -4 -7 -3 -8 4 -4 6 4 9 13 5 22 -4 12 -8
12 -21 2 -13 -11 -14 -10 -4 8 13 24 5 39 -13 24 -8 -7 -12 -4 -12 8 0 9 5 21
11 25 7 6 4 7 -7 3 -12 -4 -20 1 -27 18 -7 18 -14 23 -29 19 -13 -3 -21 -1
-21 7 0 9 -3 10 -13 1 -10 -8 -17 -7 -27 2 -10 10 -11 9 -5 -3 6 -12 5 -12 -5
-3 -7 6 -19 9 -28 5 -11 -4 -14 -1 -9 11 5 14 3 16 -12 8 -18 -10 -31 -6 -31
11 0 5 5 6 12 2 7 -5 8 -3 3 6 -6 10 -11 9 -22 -5 -11 -16 -17 -14 -15 5 0 3
-9 7 -21 7 -17 2 -19 0 -7 -7 13 -8 12 -10 -2 -11 -10 -1 -24 -2 -30 -3 -7 -1
-20 1 -29 5 -8 4 -21 4 -29 -1 -8 -5 -22 -4 -34 2 -20 11 -20 10 -6 -8 14 -19
14 -19 -7 0 -16 13 -30 16 -49 12 -25 -7 -26 -6 -13 11 13 17 13 17 -6 1 -17
-14 -22 -14 -33 -2 -9 10 -18 11 -31 4 -15 -7 -21 -6 -26 8 -6 16 -7 16 -21
-2 -10 -14 -14 -16 -14 -5 0 12 -2 12 -10 -1 -5 -8 -10 -10 -10 -5 0 6 -20 10
-45 10 -25 0 -45 -4 -45 -10 0 -5 -5 -3 -10 5 -5 8 -10 11 -10 5 0 -11 -61
-12 -78 -1 -7 4 -12 2 -12 -5 0 -8 -4 -8 -15 1 -8 7 -15 9 -16 4 0 -5 -4 0 -9
11 -8 19 -9 19 -9 1 -1 -16 -3 -17 -18 -5 -9 8 -14 9 -10 3 3 -6 0 -11 -8 -11
-8 0 -11 5 -8 10 4 7 -1 7 -13 3 -39 -16 -54 -18 -54 -7 0 7 4 10 8 7 5 -3 9
2 9 10 0 10 -4 11 -11 4 -14 -14 -29 -13 -20 3 6 9 5 9 -7 0 -11 -9 -19 -9
-26 -2 -6 6 -10 5 -10 -5z m521 -34 c3 -5 -1 -9 -9 -9 -8 0 -12 4 -9 9 3 4 7
8 9 8 2 0 6 -4 9 -8z m452 -77 c-9 -9 -16 -13 -16 -8 0 12 22 34 28 28 2 -2
-3 -11 -12 -20z m564 -175 c0 -5 -5 -10 -11 -10 -5 0 -7 5 -4 10 3 6 8 10 11
10 2 0 4 -4 4 -10z m849 -2634 c9 -10 8 -15 -3 -19 -11 -4 -13 -1 -9 10 5 12
3 14 -7 8 -9 -5 -11 -4 -6 3 9 15 11 15 25 -2z m21 -430 c0 -3 -4 -8 -10 -11
-5 -3 -10 -1 -10 4 0 6 5 11 10 11 6 0 10 -2 10 -4z m-214 -292 c-3 -7 1 -20
9 -28 13 -12 13 -15 0 -20 -8 -3 -15 -16 -15 -28 0 -18 -2 -20 -9 -8 -6 8 -7
18 -4 23 3 4 -4 11 -16 14 -27 7 -27 23 -1 23 15 0 20 7 20 26 0 15 4 23 11
19 6 -4 8 -13 5 -21z"/>
<path d="M2610 5039 c0 -5 5 -7 10 -4 6 3 10 8 10 11 0 2 -4 4 -10 4 -5 0 -10
-5 -10 -11z"/>
<path d="M2676 5042 c-3 -5 1 -9 9 -9 8 0 12 4 9 9 -3 4 -7 8 -9 8 -2 0 -6 -4
-9 -8z"/>
<path d="M1316 4514 c-5 -14 -4 -15 9 -4 17 14 19 20 6 20 -5 0 -12 -7 -15
-16z"/>
<path d="M1097 3933 c-10 -9 -9 -23 1 -23 5 0 9 7 9 15 0 17 -1 18 -10 8z"/>
<path d="M4387 3169 c7 -7 15 -10 18 -7 3 3 -2 9 -12 12 -14 6 -15 5 -6 -5z"/>
<path d="M913 2511 c1 -11 8 -21 15 -21 12 0 12 3 1 18 -7 9 -14 19 -16 21 -1
2 -1 -6 0 -18z"/>
<path d="M4350 2120 c-9 -6 -10 -10 -3 -10 6 0 15 5 18 10 8 12 4 12 -15 0z"/>
<path d="M4350 1816 c0 -2 7 -9 15 -16 9 -7 15 -8 15 -2 0 5 -7 12 -15 16 -8
3 -15 4 -15 2z"/>
</g>
</svg>
